<mxfile host="Electron" modified="2024-04-17T11:37:22.354Z" agent="Mozilla/5.0 (Windows NT 10.0; Win64; x64) AppleWebKit/537.36 (KHTML, like Gecko) draw.io/24.0.4 Chrome/120.0.6099.109 Electron/28.1.0 Safari/537.36" etag="xE0erk8MSpCWJJEDRqcs" version="24.0.4" type="device">
  <diagram id="23iRSUPoRavnBvh4doch" name="Page-1">
    <mxGraphModel dx="1195" dy="697" grid="1" gridSize="10" guides="1" tooltips="1" connect="1" arrows="1" fold="1" page="1" pageScale="1" pageWidth="827" pageHeight="1169" math="0" shadow="0">
      <root>
        <mxCell id="0" />
        <mxCell id="1" parent="0" />
        <mxCell id="YRtk426wQXNXp2fW97Ja-1" value="&lt;h1&gt;Fool sort&lt;/h1&gt;" style="text;html=1;align=center;verticalAlign=middle;resizable=0;points=[];autosize=1;strokeColor=none;fillColor=none;" vertex="1" parent="1">
          <mxGeometry x="349" y="10" width="130" height="70" as="geometry" />
        </mxCell>
        <mxCell id="YRtk426wQXNXp2fW97Ja-4" value="" style="edgeStyle=orthogonalEdgeStyle;rounded=0;orthogonalLoop=1;jettySize=auto;html=1;" edge="1" parent="1" source="YRtk426wQXNXp2fW97Ja-2" target="YRtk426wQXNXp2fW97Ja-3">
          <mxGeometry relative="1" as="geometry" />
        </mxCell>
        <mxCell id="YRtk426wQXNXp2fW97Ja-2" value="&lt;h3&gt;Begin&lt;/h3&gt;" style="rounded=1;whiteSpace=wrap;html=1;fillColor=#f5f5f5;fontColor=#333333;strokeColor=#666666;" vertex="1" parent="1">
          <mxGeometry x="359" y="120" width="120" height="40" as="geometry" />
        </mxCell>
        <mxCell id="YRtk426wQXNXp2fW97Ja-6" value="" style="edgeStyle=orthogonalEdgeStyle;rounded=0;orthogonalLoop=1;jettySize=auto;html=1;" edge="1" parent="1" source="YRtk426wQXNXp2fW97Ja-3" target="YRtk426wQXNXp2fW97Ja-5">
          <mxGeometry relative="1" as="geometry" />
        </mxCell>
        <mxCell id="YRtk426wQXNXp2fW97Ja-3" value="i = 0; i &amp;lt; arr.length - 1; ++i" style="shape=hexagon;perimeter=hexagonPerimeter2;whiteSpace=wrap;html=1;fixedSize=1;fillColor=#f5f5f5;fontColor=#333333;strokeColor=#666666;" vertex="1" parent="1">
          <mxGeometry x="330.5" y="200" width="177" height="40" as="geometry" />
        </mxCell>
        <mxCell id="YRtk426wQXNXp2fW97Ja-10" value="" style="edgeStyle=orthogonalEdgeStyle;rounded=0;orthogonalLoop=1;jettySize=auto;html=1;" edge="1" parent="1" source="YRtk426wQXNXp2fW97Ja-5" target="YRtk426wQXNXp2fW97Ja-9">
          <mxGeometry relative="1" as="geometry" />
        </mxCell>
        <mxCell id="YRtk426wQXNXp2fW97Ja-5" value="" style="shape=trapezoid;perimeter=trapezoidPerimeter;whiteSpace=wrap;html=1;fixedSize=1;fillColor=#f5f5f5;strokeColor=#666666;fontColor=#333333;" vertex="1" parent="1">
          <mxGeometry x="359" y="280" width="120" height="40" as="geometry" />
        </mxCell>
        <mxCell id="YRtk426wQXNXp2fW97Ja-12" value="" style="edgeStyle=orthogonalEdgeStyle;rounded=0;orthogonalLoop=1;jettySize=auto;html=1;" edge="1" parent="1" source="YRtk426wQXNXp2fW97Ja-9" target="YRtk426wQXNXp2fW97Ja-11">
          <mxGeometry relative="1" as="geometry" />
        </mxCell>
        <mxCell id="YRtk426wQXNXp2fW97Ja-16" value="" style="edgeStyle=orthogonalEdgeStyle;rounded=0;orthogonalLoop=1;jettySize=auto;html=1;" edge="1" parent="1" source="YRtk426wQXNXp2fW97Ja-9" target="YRtk426wQXNXp2fW97Ja-15">
          <mxGeometry relative="1" as="geometry" />
        </mxCell>
        <mxCell id="YRtk426wQXNXp2fW97Ja-9" value="arr[ i ] &amp;gt;&lt;div&gt;arr[ i + 1 ]&lt;/div&gt;" style="rhombus;whiteSpace=wrap;html=1;fillColor=#f5f5f5;strokeColor=#666666;fontColor=#333333;" vertex="1" parent="1">
          <mxGeometry x="379" y="360" width="80" height="80" as="geometry" />
        </mxCell>
        <mxCell id="YRtk426wQXNXp2fW97Ja-18" value="" style="edgeStyle=orthogonalEdgeStyle;rounded=0;orthogonalLoop=1;jettySize=auto;html=1;" edge="1" parent="1" source="YRtk426wQXNXp2fW97Ja-11" target="YRtk426wQXNXp2fW97Ja-17">
          <mxGeometry relative="1" as="geometry" />
        </mxCell>
        <mxCell id="YRtk426wQXNXp2fW97Ja-11" value="swap arr[ i ]&amp;nbsp;&lt;span style=&quot;background-color: initial;&quot;&gt;and arr[ i + 1 ]&lt;/span&gt;" style="whiteSpace=wrap;html=1;fillColor=#f5f5f5;strokeColor=#666666;fontColor=#333333;" vertex="1" parent="1">
          <mxGeometry x="150" y="385" width="180.5" height="30" as="geometry" />
        </mxCell>
        <mxCell id="YRtk426wQXNXp2fW97Ja-13" value="true" style="text;html=1;align=center;verticalAlign=middle;resizable=0;points=[];autosize=1;strokeColor=none;fillColor=none;" vertex="1" parent="1">
          <mxGeometry x="340" y="368" width="40" height="30" as="geometry" />
        </mxCell>
        <mxCell id="YRtk426wQXNXp2fW97Ja-14" value="false" style="text;html=1;align=center;verticalAlign=middle;resizable=0;points=[];autosize=1;strokeColor=none;fillColor=none;" vertex="1" parent="1">
          <mxGeometry x="414" y="440" width="50" height="30" as="geometry" />
        </mxCell>
        <mxCell id="YRtk426wQXNXp2fW97Ja-22" value="" style="edgeStyle=orthogonalEdgeStyle;rounded=0;orthogonalLoop=1;jettySize=auto;html=1;" edge="1" parent="1" source="YRtk426wQXNXp2fW97Ja-15" target="YRtk426wQXNXp2fW97Ja-21">
          <mxGeometry relative="1" as="geometry" />
        </mxCell>
        <mxCell id="YRtk426wQXNXp2fW97Ja-15" value="" style="shape=trapezoid;perimeter=trapezoidPerimeter;whiteSpace=wrap;html=1;fixedSize=1;fillColor=#f5f5f5;strokeColor=#666666;fontColor=#333333;flipV=1;" vertex="1" parent="1">
          <mxGeometry x="359" y="480" width="120" height="40" as="geometry" />
        </mxCell>
        <mxCell id="YRtk426wQXNXp2fW97Ja-17" value="i = -1" style="whiteSpace=wrap;html=1;fillColor=#f5f5f5;strokeColor=#666666;fontColor=#333333;" vertex="1" parent="1">
          <mxGeometry x="150" y="440" width="180.5" height="30" as="geometry" />
        </mxCell>
        <mxCell id="YRtk426wQXNXp2fW97Ja-20" value="" style="endArrow=classic;html=1;rounded=0;exitX=1;exitY=0.5;exitDx=0;exitDy=0;" edge="1" parent="1" source="YRtk426wQXNXp2fW97Ja-17" target="YRtk426wQXNXp2fW97Ja-14">
          <mxGeometry width="50" height="50" relative="1" as="geometry">
            <mxPoint x="350" y="470" as="sourcePoint" />
            <mxPoint x="400" y="420" as="targetPoint" />
          </mxGeometry>
        </mxCell>
        <mxCell id="YRtk426wQXNXp2fW97Ja-21" value="&lt;h3&gt;End&lt;/h3&gt;" style="rounded=1;whiteSpace=wrap;html=1;fillColor=#f5f5f5;fontColor=#333333;strokeColor=#666666;" vertex="1" parent="1">
          <mxGeometry x="359" y="560" width="120" height="40" as="geometry" />
        </mxCell>
      </root>
    </mxGraphModel>
  </diagram>
</mxfile>
